<svg width="64" height="64" viewBox="0 0 64 64" fill="none" xmlns="http://www.w3.org/2000/svg">
<g clip-path="url(#clip0_147_1014)">
<rect width="64" height="64" rx="2" fill="#B4D7B9"/>
<rect x="19" y="2" width="10" height="54" fill="#004522"/>
<rect x="2" y="21" width="59" height="9" fill="#004522"/>
<path d="M17.5059 19.6357C17.5059 20.7263 17.3593 21.7812 17.0918 22.7822C16.1376 23.0628 15.1324 23.2158 14.0928 23.2158C7.96659 23.2158 3 18.0064 3 11.5801C3.00003 10.4893 3.14747 9.43471 3.41504 8.43359C4.36892 8.15323 5.37386 8.00003 6.41309 8C12.5392 8 17.5057 13.2096 17.5059 19.6357Z" fill="#33962B"/>
<path d="M41 61C41 61 42.5 51.5 36 47.5C29.5 43.5 10.9544 35.0101 14 28.5C17.0456 21.99 31 16.5 37 15.5C43 14.5 61 22.5 61 22.5" stroke="#41723D" stroke-width="10" stroke-linejoin="bevel"/>
<path d="M50.084 2.19488C51.216 2.13556 52.3184 2.21963 53.371 2.42355C53.7109 3.3312 53.9228 4.29459 53.9755 5.30015C54.2859 11.224 49.1266 16.3102 42.4527 16.66C41.3202 16.7193 40.2176 16.6345 39.1647 16.4304C38.825 15.5231 38.6149 14.5598 38.5622 13.5547C38.2517 7.63083 43.4101 2.54464 50.084 2.19488Z" fill="#33962B"/>
<rect x="39" y="21" width="22" height="9" fill="#004522"/>
<rect x="19" y="30" width="10" height="31" fill="#004522"/>
<path d="M50.1768 39C51.0366 39 51.868 39.1239 52.6572 39.3506C52.8785 40.1597 53 41.012 53 41.8936C53 47.0881 48.8913 51.2998 43.8232 51.2998C42.963 51.2998 42.1313 51.1751 41.3418 50.9482C41.1206 50.1393 41 49.2866 41 48.4053C41.0001 43.2108 45.1088 39 50.1768 39Z" fill="#33962B"/>
</g>
<defs>
<clipPath id="clip0_147_1014">
<rect width="64" height="64" rx="8" fill="white"/>
</clipPath>
</defs>
</svg>
