<svg width="64" height="64" viewBox="0 0 64 64" fill="none" xmlns="http://www.w3.org/2000/svg">
<g clip-path="url(#clip0_147_1077)">
<rect width="64" height="64" rx="2" fill="#B4D7B9"/>
<rect x="19" y="4" width="10" height="54" fill="#004522"/>
<rect y="23" width="61" height="9" fill="#004522"/>
<path d="M17.5059 21.6357C17.5059 22.7263 17.3593 23.7812 17.0918 24.7822C16.1376 25.0628 15.1324 25.2158 14.0928 25.2158C7.96659 25.2158 3 20.0064 3 13.5801C3.00003 12.4893 3.14747 11.4347 3.41504 10.4336C4.36892 10.1532 5.37386 10 6.41309 10C12.5392 10 17.5057 15.2096 17.5059 21.6357Z" fill="#33962B"/>
<path d="M41.1245 64C41.1245 64 42.6245 54.5 36.1245 50.5C29.6245 46.5 10.9544 37.0101 14 30.5C17.0456 23.9899 34.5 20.5 34.5 13C34.5 5.50001 15.1245 -3 15.1245 -3" stroke="#41723D" stroke-width="10" stroke-linejoin="bevel"/>
<path d="M46.084 4.19488C47.216 4.13556 48.3184 4.21963 49.371 4.42355C49.7109 5.3312 49.9228 6.29459 49.9755 7.30015C50.2859 13.224 45.1266 18.3102 38.4527 18.66C37.3202 18.7193 36.2176 18.6345 35.1647 18.4304C34.825 17.5231 34.6149 16.5598 34.5622 15.5547C34.2517 9.63083 39.4101 4.54464 46.084 4.19488Z" fill="#33962B"/>
<rect x="39" y="23" width="30" height="9" fill="#004522"/>
<rect x="19" y="32" width="10" height="38" fill="#004522"/>
<rect x="19" y="-8" width="10" height="22" fill="#004522"/>
<path d="M50.1768 41C51.0366 41 51.868 41.1239 52.6572 41.3506C52.8785 42.1597 53 43.012 53 43.8936C53 49.0881 48.8913 53.2998 43.8232 53.2998C42.963 53.2998 42.1313 53.1751 41.3418 52.9482C41.1206 52.1393 41 51.2866 41 50.4053C41.0001 45.2108 45.1088 41 50.1768 41Z" fill="#33962B"/>
</g>
<defs>
<clipPath id="clip0_147_1077">
<rect width="64" height="64" rx="8" fill="white"/>
</clipPath>
</defs>
</svg>
