<svg width="64" height="64" viewBox="0 0 64 64" fill="none" xmlns="http://www.w3.org/2000/svg">
<g clip-path="url(#clip0_147_1014)">
<rect width="64" height="64" rx="2" fill="#B4D7B9"/>
<path d="M33.2871 42.449C33.9109 42.7948 34.4767 43.2047 34.9849 43.6625C34.8223 44.1076 34.6245 44.5463 34.3875 44.9738C31.9305 49.4064 26.345 51.0081 21.9124 48.551C21.2882 48.205 20.7227 47.7943 20.2142 47.3362C20.3767 46.8914 20.5752 46.4533 20.812 46.0262C23.269 41.5936 28.8545 39.992 33.2871 42.449Z" fill="#4A7646"/>
<rect x="28" y="14" width="6" height="39" fill="#004522"/>
<rect x="15" y="14" width="6" height="39" fill="#004522"/>
<rect x="9" y="19" width="43" height="5" fill="#004522"/>
<rect x="9" y="31" width="43" height="5" fill="#004522"/>
<rect x="9" y="43" width="43" height="5" fill="#004522"/>
<path d="M27 25.9414C27 26.8729 26.8893 27.7739 26.6865 28.6289C25.9628 28.8687 25.2006 29 24.4121 29C19.7664 29 16 24.549 16 19.0586C16 18.1267 16.1115 17.2254 16.3145 16.3701C17.0378 16.1306 17.7998 16 18.5879 16C23.2336 16 27 20.451 27 25.9414Z" fill="#4A7646"/>
<rect x="40" y="14" width="6" height="39" fill="#004522"/>
<path d="M47 56C47 56 47 51 43 46C39 41 23.2585 35.1729 25.4995 29.9999C27.7405 24.8269 36.5903 23.7711 37.3509 19.814C38.1115 15.8569 35.8431 10.1756 35.8431 10.1756" stroke="#41723D" stroke-width="6" stroke-linejoin="bevel"/>
<rect x="28" y="31" width="6" height="22" fill="#004522"/>
<rect x="27" y="19" width="25" height="5" fill="#004522"/>
<path d="M47.1768 7C48.0365 7.00003 48.8681 7.12066 49.6572 7.3418C49.8786 8.13131 50 8.96303 50 9.82324C50 14.8913 45.8913 19 40.8232 19C39.963 19 39.1313 18.8786 38.3418 18.6572C38.1207 17.8681 38 17.0365 38 16.1768C38 11.1087 42.1087 7 47.1768 7Z" fill="#4A7646"/>
<rect x="40" y="14" width="6" height="26" fill="#004522"/>
<path d="M46.1768 28C47.0365 28 47.8681 28.1207 48.6572 28.3418C48.8786 29.1313 49 29.963 49 30.8232C49 35.8913 44.8913 40 39.8232 40C38.963 40 38.1313 39.8786 37.3418 39.6572C37.1207 38.8681 37 38.0365 37 37.1768C37 32.1087 41.1087 28 46.1768 28Z" fill="#4A7646"/>
</g>
<defs>
<clipPath id="clip0_147_1014">
<rect width="64" height="64" rx="8" fill="white"/>
</clipPath>
</defs>
</svg>
