<svg width="64" height="64" viewBox="0 0 64 64" fill="none" xmlns="http://www.w3.org/2000/svg">
<g clip-path="url(#clip0_147_1101)">
<rect width="64" height="64" rx="2" fill="#B4D7B9"/>
<rect x="12" y="7" width="8" height="52" fill="#004522"/>
<rect x="28" y="7" width="8" height="52" fill="#004522"/>
<rect x="44" y="7" width="8" height="52" fill="#004522"/>
<rect x="6" y="13" width="52" height="8" fill="#004522"/>
<rect x="6" y="29" width="52" height="8" fill="#004522"/>
<rect x="5" y="45" width="52" height="8" fill="#004522"/>
<path d="M45.924 60C45.924 60 45.424 54 43.6933 52.058C41.9626 50.116 19.8982 39.9363 22.6808 34.2286C25.4634 28.5209 38.5075 24.2546 38.4185 17.6461C38.3295 11.0377 27.424 3 27.424 3" stroke="#41723D" stroke-width="10" stroke-linejoin="bevel"/>
<rect x="28" y="35" width="8" height="24" fill="#004522"/>
<path d="M53.084 4.19488C54.216 4.13556 55.3184 4.21963 56.371 4.42355C56.7109 5.3312 56.9228 6.29459 56.9755 7.30015C57.2859 13.224 52.1266 18.3102 45.4527 18.66C44.3202 18.7193 43.2176 18.6345 42.1647 18.4304C41.825 17.5231 41.6149 16.5598 41.5622 15.5547C41.2517 9.63083 46.4101 4.54464 53.084 4.19488Z" fill="#33962B"/>
<path d="M23.5059 28.6357C23.5059 29.7263 23.3593 30.7812 23.0918 31.7822C22.1376 32.0628 21.1324 32.2158 20.0928 32.2158C13.9666 32.2158 9 27.0064 9 20.5801C9.00003 19.4893 9.14747 18.4347 9.41504 17.4336C10.3689 17.1532 11.3739 17 12.4131 17C18.5392 17 23.5057 22.2096 23.5059 28.6357Z" fill="#33962B"/>
</g>
<defs>
<clipPath id="clip0_147_1101">
<rect width="64" height="64" rx="8" fill="white"/>
</clipPath>
</defs>
</svg>
