<svg width="64" height="64" viewBox="0 0 64 64" fill="none" xmlns="http://www.w3.org/2000/svg">
<g clip-path="url(#clip0_147_1188)">
<rect width="64" height="64" rx="2" fill="#B4D7B9"/>
<path d="M45.084 7.19488C46.216 7.13557 47.3184 7.21963 48.371 7.42356C48.7109 8.3312 48.9228 9.29459 48.9755 10.3002C49.2859 16.224 44.1266 21.3102 37.4527 21.66C36.3202 21.7193 35.2176 21.6345 34.1647 21.4304C33.825 20.5231 33.6149 19.5598 33.5622 18.5547C33.2517 12.6308 38.4101 7.54465 45.084 7.19488Z" fill="#33962B"/>
<rect x="28" y="6" width="8" height="52" fill="#004522"/>
<rect x="28" y="34" width="8" height="24" fill="#004522"/>
<path d="M45.1489 37.8929C46.2685 38.0703 47.3293 38.3817 48.3165 38.8C48.4603 39.7585 48.4672 40.7449 48.3097 41.7395C47.3817 47.5984 41.2777 51.5008 34.6768 50.4553C33.5568 50.2779 32.4959 49.9657 31.5084 49.5471C31.3648 48.589 31.3595 47.6031 31.517 46.609C32.4449 40.75 38.548 36.8475 45.1489 37.8929Z" fill="#33962B"/>
<path d="M28.5059 29.6357C28.5059 30.7263 28.3593 31.7812 28.0918 32.7822C27.1376 33.0628 26.1324 33.2158 25.0928 33.2158C18.9666 33.2158 14 28.0064 14 21.5801C14 20.4893 14.1475 19.4347 14.415 18.4336C15.3689 18.1532 16.3739 18 17.4131 18C23.5392 18 28.5057 23.2096 28.5059 29.6357Z" fill="#33962B"/>
</g>
<defs>
<clipPath id="clip0_147_1188">
<rect width="64" height="64" rx="8" fill="white"/>
</clipPath>
</defs>
</svg>
